<mxfile host="65bd71144e">
    <diagram id="N-NqEReRJQJQrJY7CJO8" name="Page-1">
        <mxGraphModel dx="1254" dy="767" grid="1" gridSize="10" guides="1" tooltips="1" connect="1" arrows="1" fold="1" page="1" pageScale="1" pageWidth="1169" pageHeight="827" math="0" shadow="0">
            <root>
                <mxCell id="0"/>
                <mxCell id="1" parent="0"/>
                <mxCell id="PNC0AH6JoXKZmijt-zqj-16" style="edgeStyle=orthogonalEdgeStyle;rounded=0;orthogonalLoop=1;jettySize=auto;html=1;exitX=0;exitY=1;exitDx=0;exitDy=0;" parent="1" source="PNC0AH6JoXKZmijt-zqj-1" target="PNC0AH6JoXKZmijt-zqj-15" edge="1">
                    <mxGeometry relative="1" as="geometry"/>
                </mxCell>
                <mxCell id="PNC0AH6JoXKZmijt-zqj-1" value="" style="rounded=0;whiteSpace=wrap;html=1;fillColor=default;" parent="1" vertex="1">
                    <mxGeometry x="10" y="40" width="1150" height="320" as="geometry"/>
                </mxCell>
                <mxCell id="PNC0AH6JoXKZmijt-zqj-9" style="edgeStyle=orthogonalEdgeStyle;rounded=0;orthogonalLoop=1;jettySize=auto;html=1;exitX=0;exitY=1;exitDx=0;exitDy=0;entryX=0;entryY=0.5;entryDx=0;entryDy=0;strokeWidth=1;dashed=1;" parent="1" source="PNC0AH6JoXKZmijt-zqj-2" target="PNC0AH6JoXKZmijt-zqj-7" edge="1">
                    <mxGeometry relative="1" as="geometry">
                        <Array as="points">
                            <mxPoint x="50" y="245"/>
                        </Array>
                    </mxGeometry>
                </mxCell>
                <mxCell id="PNC0AH6JoXKZmijt-zqj-19" style="edgeStyle=orthogonalEdgeStyle;rounded=0;orthogonalLoop=1;jettySize=auto;html=1;exitX=0;exitY=0.75;exitDx=0;exitDy=0;entryX=0.5;entryY=0;entryDx=0;entryDy=0;fontColor=#FFFFFF;strokeWidth=2;" parent="1" source="PNC0AH6JoXKZmijt-zqj-2" target="PNC0AH6JoXKZmijt-zqj-18" edge="1">
                    <mxGeometry relative="1" as="geometry">
                        <Array as="points">
                            <mxPoint x="30" y="110"/>
                            <mxPoint x="30" y="380"/>
                            <mxPoint x="220" y="380"/>
                        </Array>
                    </mxGeometry>
                </mxCell>
                <mxCell id="PNC0AH6JoXKZmijt-zqj-2" value="" style="rounded=0;whiteSpace=wrap;html=1;fillColor=default;" parent="1" vertex="1">
                    <mxGeometry x="50" y="50" width="1100" height="80" as="geometry"/>
                </mxCell>
                <mxCell id="PNC0AH6JoXKZmijt-zqj-3" value="key" style="rounded=0;whiteSpace=wrap;html=1;fillColor=default;" parent="1" vertex="1">
                    <mxGeometry x="70" y="60" width="120" height="60" as="geometry"/>
                </mxCell>
                <mxCell id="PNC0AH6JoXKZmijt-zqj-5" value="string1" style="rounded=0;whiteSpace=wrap;html=1;fillColor=default;" parent="1" vertex="1">
                    <mxGeometry x="210" y="60" width="440" height="60" as="geometry"/>
                </mxCell>
                <mxCell id="PNC0AH6JoXKZmijt-zqj-6" value="string2" style="rounded=0;whiteSpace=wrap;html=1;fillColor=default;" parent="1" vertex="1">
                    <mxGeometry x="660" y="60" width="440" height="60" as="geometry"/>
                </mxCell>
                <mxCell id="PNC0AH6JoXKZmijt-zqj-21" style="edgeStyle=orthogonalEdgeStyle;rounded=0;orthogonalLoop=1;jettySize=auto;html=1;exitX=0.25;exitY=1;exitDx=0;exitDy=0;entryX=0.5;entryY=0;entryDx=0;entryDy=0;fontColor=#FFFFFF;strokeWidth=2;" parent="1" source="PNC0AH6JoXKZmijt-zqj-7" target="PNC0AH6JoXKZmijt-zqj-20" edge="1">
                    <mxGeometry relative="1" as="geometry"/>
                </mxCell>
                <mxCell id="PNC0AH6JoXKZmijt-zqj-7" value="extra data" style="rounded=0;whiteSpace=wrap;html=1;fillColor=default;verticalAlign=bottom;fontSize=13;" parent="1" vertex="1">
                    <mxGeometry x="70" y="140" width="1030" height="210" as="geometry"/>
                </mxCell>
                <mxCell id="PNC0AH6JoXKZmijt-zqj-10" value="" style="triangle;whiteSpace=wrap;html=1;fillColor=#000000;" parent="1" vertex="1">
                    <mxGeometry x="30" y="80" width="10" height="20" as="geometry"/>
                </mxCell>
                <mxCell id="PNC0AH6JoXKZmijt-zqj-14" value="" style="group" parent="1" vertex="1" connectable="0">
                    <mxGeometry x="1120" y="80" width="40" height="20" as="geometry"/>
                </mxCell>
                <mxCell id="PNC0AH6JoXKZmijt-zqj-11" value="" style="ellipse;whiteSpace=wrap;html=1;aspect=fixed;fillColor=#000000;" parent="PNC0AH6JoXKZmijt-zqj-14" vertex="1">
                    <mxGeometry width="4.848484848484848" height="4.848484848484848" as="geometry"/>
                </mxCell>
                <mxCell id="PNC0AH6JoXKZmijt-zqj-12" value="" style="ellipse;whiteSpace=wrap;html=1;aspect=fixed;fillColor=#000000;" parent="PNC0AH6JoXKZmijt-zqj-14" vertex="1">
                    <mxGeometry y="7.878787878787879" width="4.848484848484848" height="4.848484848484848" as="geometry"/>
                </mxCell>
                <mxCell id="PNC0AH6JoXKZmijt-zqj-13" value="" style="ellipse;whiteSpace=wrap;html=1;aspect=fixed;fillColor=#000000;" parent="PNC0AH6JoXKZmijt-zqj-14" vertex="1">
                    <mxGeometry y="15.151515151515149" width="4.848484848484848" height="4.848484848484848" as="geometry"/>
                </mxCell>
                <mxCell id="PNC0AH6JoXKZmijt-zqj-15" value=".entry" style="rounded=0;whiteSpace=wrap;html=1;" parent="1" vertex="1">
                    <mxGeometry x="10" y="430" width="120" height="60" as="geometry"/>
                </mxCell>
                <mxCell id="PNC0AH6JoXKZmijt-zqj-18" value=".main" style="rounded=0;whiteSpace=wrap;html=1;" parent="1" vertex="1">
                    <mxGeometry x="160" y="430" width="120" height="60" as="geometry"/>
                </mxCell>
                <mxCell id="PNC0AH6JoXKZmijt-zqj-20" value=".extra" style="rounded=0;whiteSpace=wrap;html=1;" parent="1" vertex="1">
                    <mxGeometry x="310" y="430" width="120" height="60" as="geometry"/>
                </mxCell>
                <mxCell id="2" value="Description" style="rounded=0;whiteSpace=wrap;html=1;fillColor=default;" vertex="1" parent="1">
                    <mxGeometry x="80" y="150" width="120" height="60" as="geometry"/>
                </mxCell>
                <mxCell id="3" value="text" style="rounded=0;whiteSpace=wrap;html=1;fillColor=default;" vertex="1" parent="1">
                    <mxGeometry x="220" y="150" width="860" height="60" as="geometry"/>
                </mxCell>
                <mxCell id="4" value="Placeholders" style="rounded=0;whiteSpace=wrap;html=1;fillColor=default;" vertex="1" parent="1">
                    <mxGeometry x="100" y="220" width="980" height="50" as="geometry"/>
                </mxCell>
                <mxCell id="6" value="" style="triangle;whiteSpace=wrap;html=1;fillColor=#000000;" vertex="1" parent="1">
                    <mxGeometry x="80" y="240" width="10" height="20" as="geometry"/>
                </mxCell>
                <mxCell id="8" value="Placeholders" style="rounded=0;whiteSpace=wrap;html=1;fillColor=default;" vertex="1" parent="1">
                    <mxGeometry x="130" y="280" width="950" height="50" as="geometry"/>
                </mxCell>
                <mxCell id="13" style="edgeStyle=orthogonalEdgeStyle;rounded=0;orthogonalLoop=1;jettySize=auto;html=1;exitX=0;exitY=1;exitDx=0;exitDy=0;entryX=0;entryY=0.5;entryDx=0;entryDy=0;strokeWidth=1;dashed=1;" edge="1" parent="1" source="4" target="8">
                    <mxGeometry relative="1" as="geometry">
                        <mxPoint x="99.99999999999977" y="279.9999999999998" as="sourcePoint"/>
                        <mxPoint x="119.99999999999977" y="395" as="targetPoint"/>
                        <Array as="points">
                            <mxPoint x="100" y="305"/>
                        </Array>
                    </mxGeometry>
                </mxCell>
            </root>
        </mxGraphModel>
    </diagram>
</mxfile>